<svg width="180" height="57" xmlns="http://www.w3.org/2000/svg"><g fill-rule="nonzero" fill="none"><path fill="#7AD7DA" d="M31.024 9.122L15.782.037.036 9.42V27.57z"/><path fill="#E63946" d="M32.03 9.734l-15.745 9.363 15.242 9.085v18.763l15.746-9.382V18.8z"/><path fill="#457B9D" d="M30.503 47.538V28.794l-14.721 8.77V19.411L.036 28.794v18.151l15.746 9.382z"/><path stroke="#1d3557" fill="#1d3557" d="M62.538 19.364v12.504c0 1.4.295 2.333.904 2.837.61.504 1.31.765 2.123.765 2.048 0 3.451-.746 4.19-2.22V19.381h4.282V38.68H70.03v-.018l-.11-1.885c-1.255 1.493-3.027 2.24-5.353 2.24-1.864 0-3.36-.56-4.54-1.662-1.182-1.1-1.754-2.93-1.772-5.45V19.364h4.282zm65.505-.355c2.768 0 4.928.915 6.478 2.744 1.55 1.829 2.363 4.106 2.4 6.849v.597c0 2.8-.776 5.133-2.344 7-1.55 1.865-3.729 2.799-6.516 2.799-2.805 0-4.983-.934-6.534-2.8-1.569-1.866-2.344-4.2-2.344-6.999v-.373c0-2.8.775-5.132 2.344-6.999 1.57-1.885 3.729-2.818 6.516-2.818zm-39.85-.019c1.828 0 3.304.542 4.412 1.605 1.107 1.064 1.66 2.893 1.68 5.469v12.579h-4.283V26.12c0-1.325-.277-2.258-.849-2.8-.609-.504-1.44-.784-2.547-.784-1.698 0-2.99.784-3.84 2.352v13.774h-4.281V19.364h4.042l.148 2.202c1.402-1.717 3.23-2.576 5.518-2.576zm15.043.374v19.298h-4.282V19.364h4.282zm12.957-8.455c.794 0 1.587.112 2.418.317l-.11 3.397a9.015 9.015 0 00-1.662-.15c-2.012 0-3.027 1.009-3.045 3.006v1.903h3.857v3.173h-3.857v16.107h-4.3V22.555h-2.917v-3.191h2.916v-1.83c0-2.146.59-3.788 1.79-4.927 1.2-1.138 2.824-1.698 4.91-1.698zm32.522 8.1c.572 0 1.089.075 1.513.224l-.037 4.087a11.36 11.36 0 00-1.735-.13c-1.993 0-3.322.765-3.986 2.277v13.195h-4.264V19.364h4.098l.11 2.183c1.015-1.68 2.437-2.538 4.3-2.538zm25.01 0c1.938 0 3.47.541 4.577 1.642 1.126 1.102 1.68 2.893 1.698 5.413v12.598h-4.282V26.138c0-1.418-.314-2.388-.923-2.874-.609-.485-1.458-.728-2.51-.728-.978 0-1.772.262-2.381.803a4.117 4.117 0 00-1.274 2.09v13.233h-4.282V26.176c0-1.363-.314-2.296-.923-2.837-.627-.523-1.458-.803-2.528-.803-1.735 0-2.953.71-3.673 2.147v13.979h-4.264V19.364h4.024l.129 2.015c1.347-1.586 3.193-2.37 5.519-2.37 2.528 0 4.263.99 5.223 2.949 1.403-1.96 3.36-2.949 5.87-2.949zm-45.682 3.49c-1.588 0-2.75.635-3.489 1.904-.738 1.269-1.107 2.743-1.107 4.442v.373c0 1.736.369 3.229 1.107 4.46.739 1.251 1.901 1.867 3.526 1.867 1.568 0 2.731-.616 3.47-1.866.738-1.25 1.107-2.725 1.107-4.461v-.373c0-1.699-.37-3.192-1.107-4.442-.739-1.27-1.902-1.904-3.507-1.904zm-26.93-10.451c.757 0 1.366.224 1.79.653.425.429.647.989.647 1.642 0 .672-.222 1.213-.646 1.643-.425.429-1.034.653-1.79.653-.757 0-1.366-.224-1.79-.653-.425-.43-.647-.99-.647-1.643 0-.672.222-1.213.646-1.642.425-.43 1.034-.653 1.79-.653z"/></g></svg>